PathFileType	4	(X/Y/Z)	s01c0201.trc
DataRate	CameraRate	NumFrames	NumMarkers	Units	OrigDataRate	OrigDataStartFrame	OrigNumFrames
200	200	4	48	mm	200	0	2000
Frame#	Time	racr			lacr			c7			jug			rlel			rdr			llel			ldr			s2			lic			ric			lasi			rasi			rpsi			lpsi			rgt			lgt			rth1			rth2			rth3			rth4			rlfc			rsh1			rsh2			rsh3			rsh4			rlmal			rmmal			rcal			rtoe			rmt5			lth1			lth2			lth4			lth3			llfc			lsh1			lsh2			lsh3			lsh4			llmal			lmmal			lcal			ltoe			lmt5			SBIKE			LBIKE			RBIKE			
		X1	Y1	Z1	X2	Y2	Z2	X3	Y3	Z3	X4	Y4	Z4	X5	Y5	Z5	X6	Y6	Z6	X7	Y7	Z7	X8	Y8	Z8	X9	Y9	Z9	X10	Y10	Z10	X11	Y11	Z11	X12	Y12	Z12	X13	Y13	Z13	X14	Y14	Z14	X15	Y15	Z15	X16	Y16	Z16	X17	Y17	Z17	X18	Y18	Z18	X19	Y19	Z19	X20	Y20	Z20	X21	Y21	Z21	X22	Y22	Z22	X23	Y23	Z23	X24	Y24	Z24	X25	Y25	Z25	X26	Y26	Z26	X27	Y27	Z27	X28	Y28	Z28	X29	Y29	Z29	X30	Y30	Z30	X31	Y31	Z31	X32	Y32	Z32	X33	Y33	Z33	X34	Y34	Z34	X35	Y35	Z35	X36	Y36	Z36	X37	Y37	Z37	X38	Y38	Z38	X39	Y39	Z39	X40	Y40	Z40	X41	Y41	Z41	X42	Y42	Z42	X43	Y43	Z43	X44	Y44	Z44	X45	Y45	Z45	X46	Y46	Z46	X47	Y47	Z47	X48	Y48	Z48	
0	0.0000	448.294006	1349.703979	-76.350067	461.032806	1348.138062	-411.035339	408.934753	1417.349121	-236.909439	445.326050	1260.243408	-241.144852	531.497925	1086.653198	12.128500	706.425415	895.405640	-31.435850	528.034668	1086.022339	-510.214569	702.568909	901.584656	-446.093201	-73.704422	1141.056641	-252.340164	124.336418	1158.644043	-429.585999	86.307213	1138.461792	-95.417503	103.317497	1104.723755	-398.314026	112.975594	1089.363159	-121.728912	-44.544750	1178.172974	-199.207901	-48.867371	1186.132935	-302.588379	26.539959	1019.116638	-70.419151	45.895786	1042.066284	-460.650879	94.982948	897.495728	-54.140518	141.912994	829.846069	-62.556004	187.912247	753.257751	-76.920998	188.502899	859.459229	-71.729332	222.070541	650.593079	-100.273056	158.046539	550.223328	-68.068390	131.940552	469.345703	-69.528847	96.133713	388.110077	-81.218109	178.793976	452.627411	-103.999985	43.090023	269.917297	-100.938248	96.738930	282.786346	-174.090302	-1.313271	241.334839	-158.279938	262.907440	187.201508	-130.899017	152.212265	169.910919	-67.216331	149.666367	977.903687	-458.593231	238.628372	976.368774	-464.597229	241.530914	1030.469360	-454.671204	323.385834	966.286621	-452.942719	425.968658	914.657471	-428.583038	346.086304	836.469910	-450.815887	302.090088	762.142029	-441.483124	257.332275	690.766357	-423.840851	352.175873	736.657104	-414.971588	194.338455	580.382141	-402.913483	223.282990	587.000122	-319.651520	139.307831	546.908997	-360.733612	414.038910	507.846069	-369.985413	306.969452	494.219788	-434.907959	0.000000	0.000000	-0.000000	-12.072686	84.735565	-453.759338	-20.345587	81.006142	-53.541809	
1	0.0050	448.441803	1349.596558	-76.422760	461.075562	1348.087891	-411.127777	409.114929	1417.260742	-236.951202	445.410217	1260.134399	-241.222351	531.497070	1086.648071	12.254306	706.405884	895.406860	-31.410170	528.035278	1085.986938	-510.287018	702.562683	901.597839	-446.112549	-73.672958	1141.053467	-252.316788	124.361496	1158.658203	-429.519867	86.389549	1138.427368	-95.420334	103.173294	1104.762451	-398.468872	113.011879	1089.319214	-121.713310	-44.458290	1178.150024	-199.192139	-48.505314	1185.726074	-302.936951	26.591051	1019.072327	-70.419250	45.915642	1042.059204	-460.640869	95.053383	897.444092	-54.161102	141.983841	829.836060	-62.582985	187.976105	753.224243	-76.946480	188.570801	859.452087	-71.737404	222.159958	650.600586	-100.277580	158.087494	550.277588	-68.080231	131.951874	469.416656	-69.563522	96.095238	388.171051	-81.214645	178.795029	452.639587	-104.011482	43.020329	270.011017	-100.940247	96.779266	282.979584	-174.019653	-1.373440	241.466995	-158.287552	262.811401	187.240723	-130.871262	152.109863	169.987137	-67.220604	149.693008	977.890869	-458.600281	238.655365	976.378296	-464.609528	241.568253	1030.429077	-454.647583	323.410156	966.257568	-452.938202	425.984772	914.645691	-428.577759	346.122040	836.414917	-450.804596	302.127686	762.093018	-441.471588	257.408661	690.697021	-423.847900	352.219299	736.613525	-414.966248	194.419815	580.311584	-402.929626	223.378967	586.901794	-319.631561	139.417282	546.803467	-360.756805	414.147491	507.811951	-369.976135	307.073547	494.165863	-434.906708	0.000000	0.000000	-0.000000	-12.072560	84.760101	-453.773682	-20.320494	81.008743	-53.561737	
2	0.0100	448.559448	1349.559692	-76.462044	461.096954	1348.059204	-411.212036	409.290131	1417.157837	-237.016586	445.476288	1260.077881	-241.282654	531.486267	1086.631470	12.383274	706.407654	895.412781	-31.392885	528.026550	1085.974243	-510.367279	702.558838	901.612000	-446.123352	-73.650230	1141.074097	-252.295563	124.415001	1158.667603	-429.536346	86.469551	1138.381348	-95.429207	102.904182	1104.817017	-398.714630	113.069695	1089.316895	-121.680832	-44.460430	1178.156128	-199.157318	-47.680943	1184.721313	-303.840546	26.630669	1019.044189	-70.404907	45.934525	1042.061401	-460.625183	95.104485	897.436279	-54.146652	142.036423	829.827209	-62.588421	188.035522	753.219177	-76.955544	188.620468	859.450623	-71.733612	222.236038	650.611816	-100.276550	158.148102	550.329956	-68.099319	131.968155	469.483459	-69.566765	96.075150	388.268799	-81.236908	178.826019	452.678162	-104.027657	42.956734	270.128662	-100.933281	96.536346	283.025208	-174.079895	-1.457725	241.584290	-158.286636	262.702209	187.286499	-130.870285	152.020248	170.040405	-67.230255	149.709991	977.876770	-458.591583	238.672302	976.354492	-464.599762	241.612625	1030.403687	-454.663422	323.426453	966.216064	-452.948212	426.018158	914.617065	-428.565521	346.154694	836.363342	-450.806763	302.194550	762.046143	-441.475739	257.477875	690.631042	-423.861969	352.272614	736.553162	-414.945465	194.504395	580.230225	-402.933929	223.472168	586.849182	-319.648315	139.499664	546.711975	-360.756866	414.239349	507.776031	-369.965668	307.207123	494.110840	-434.919342	0.000000	0.000000	-0.000000	-12.070253	84.767250	-453.772705	-20.324192	80.994659	-53.543835	
3	0.0150	448.664215	1349.545654	-76.484222	460.669373	1347.393799	-411.221069	409.424011	1417.089966	-237.070450	445.551086	1260.006470	-241.318878	531.424622	1086.629028	12.550207	706.398010	895.409363	-31.377836	529.017944	1086.042236	-509.344360	702.895935	902.246948	-446.112854	-73.678169	1141.396606	-251.329193	124.470314	1158.627930	-429.486572	86.631851	1138.547974	-95.286461	102.667511	1104.861450	-398.927399	113.334892	1089.350464	-121.674011	-44.407013	1178.161377	-199.136688	-46.861282	1183.723022	-304.740784	26.858681	1018.879639	-70.210411	45.962193	1042.050903	-460.617676	95.166000	897.419128	-54.142315	142.113174	829.824829	-62.587372	188.101578	753.216919	-76.963287	188.712494	859.616943	-72.528877	222.350449	650.647278	-100.299049	158.194687	550.391113	-68.118652	131.978546	469.573181	-69.566666	96.071922	388.370667	-81.235542	178.852524	452.719574	-104.026131	42.794884	270.321381	-100.900162	96.454124	283.067047	-174.104752	-1.522794	241.721634	-158.280212	262.579407	187.299850	-130.880096	151.908493	170.106796	-67.211525	149.839554	977.812012	-458.612518	238.698380	976.333557	-464.583679	241.934296	1030.399170	-454.235229	323.431274	966.203430	-452.948700	426.221985	914.623474	-428.347382	347.544922	836.494446	-451.608551	302.291260	761.960205	-441.466858	257.794128	690.529785	-423.691284	352.700806	736.571655	-414.804321	195.154663	580.381470	-402.235504	223.659958	586.876465	-319.439789	139.706223	546.603027	-360.746277	414.337006	507.736481	-369.962769	307.317383	494.055817	-434.920105	0.000000	0.000000	-0.000000	-12.071212	84.761139	-453.752655	-20.338894	81.010124	-53.546085	
